<?xml version="1.0" encoding="utf-8"?>
<!-- Generator: Adobe Illustrator 17.0.0, SVG Export Plug-In . SVG Version: 6.00 Build 0)  -->
<!DOCTYPE svg PUBLIC "-//W3C//DTD SVG 1.1//EN" "http://www.w3.org/Graphics/SVG/1.1/DTD/svg11.dtd">
<svg version="1.1" id="Layer_1" xmlns="http://www.w3.org/2000/svg" xmlns:xlink="http://www.w3.org/1999/xlink" x="0px" y="0px"
	 width="16.14px" height="16.14px" viewBox="0 0 16.14 16.14" enable-background="new 0 0 16.14 16.14" xml:space="preserve">
<g>
	<path fill="#010101" d="M8.07,1.454c2.155,0,2.41,0.008,3.261,0.047c0.787,0.036,1.214,0.167,1.498,0.278
		c0.377,0.146,0.645,0.321,0.928,0.604c0.282,0.282,0.457,0.551,0.604,0.928c0.111,0.284,0.242,0.712,0.278,1.498
		c0.039,0.851,0.047,1.106,0.047,3.261s-0.008,2.41-0.047,3.261c-0.036,0.787-0.167,1.214-0.278,1.498
		c-0.146,0.377-0.321,0.645-0.604,0.928c-0.282,0.282-0.551,0.457-0.928,0.604c-0.284,0.111-0.712,0.242-1.498,0.278
		c-0.851,0.039-1.106,0.047-3.261,0.047s-2.41-0.008-3.261-0.047c-0.787-0.036-1.214-0.167-1.498-0.278
		c-0.377-0.146-0.645-0.321-0.928-0.604c-0.282-0.282-0.457-0.551-0.604-0.928c-0.111-0.284-0.242-0.712-0.278-1.498
		C1.462,10.48,1.454,10.225,1.454,8.07s0.008-2.41,0.047-3.261c0.036-0.787,0.167-1.214,0.278-1.498
		C1.925,2.934,2.1,2.665,2.383,2.383c0.282-0.282,0.551-0.457,0.928-0.604c0.284-0.111,0.712-0.242,1.498-0.278
		C5.66,1.462,5.915,1.454,8.07,1.454 M8.07,0C5.878,0,5.604,0.009,4.743,0.049C3.884,0.088,3.297,0.225,2.784,0.424
		C2.253,0.63,1.803,0.906,1.355,1.355C0.906,1.804,0.63,2.254,0.424,2.784c-0.199,0.513-0.336,1.1-0.375,1.959
		C0.01,5.604,0,5.878,0,8.07s0.009,2.466,0.049,3.327c0.039,0.859,0.176,1.446,0.375,1.959c0.206,0.531,0.482,0.981,0.931,1.429
		c0.449,0.449,0.899,0.725,1.429,0.931c0.513,0.2,1.1,0.336,1.959,0.375C5.604,16.13,5.879,16.14,8.07,16.14
		c2.192,0,2.466-0.009,3.327-0.049c0.859-0.039,1.446-0.176,1.959-0.375c0.531-0.206,0.981-0.482,1.429-0.931
		c0.449-0.449,0.725-0.899,0.931-1.429c0.199-0.513,0.336-1.1,0.375-1.959c0.039-0.861,0.049-1.136,0.049-3.327
		s-0.009-2.466-0.049-3.327c-0.039-0.859-0.176-1.446-0.375-1.959c-0.206-0.531-0.482-0.981-0.931-1.429
		c-0.449-0.449-0.899-0.725-1.429-0.931c-0.513-0.2-1.1-0.336-1.959-0.375C10.537,0.009,10.262,0,8.07,0L8.07,0z"/>
	<path fill="#010101" d="M8.07,3.926c-2.289,0-4.144,1.855-4.144,4.144s1.855,4.144,4.144,4.144s4.144-1.855,4.144-4.144
		S10.359,3.926,8.07,3.926z M8.07,10.76c-1.486,0-2.69-1.204-2.69-2.69s1.204-2.69,2.69-2.69s2.69,1.204,2.69,2.69
		S9.556,10.76,8.07,10.76z"/>
	<circle fill="#010101" cx="12.378" cy="3.762" r="0.968"/>
</g>
</svg>
