<?xml version="1.0" encoding="utf-8"?>
<!-- Generator: Adobe Illustrator 17.0.0, SVG Export Plug-In . SVG Version: 6.00 Build 0)  -->
<!DOCTYPE svg PUBLIC "-//W3C//DTD SVG 1.1//EN" "http://www.w3.org/Graphics/SVG/1.1/DTD/svg11.dtd">
<svg version="1.1" id="Layer_1" xmlns="http://www.w3.org/2000/svg" xmlns:xlink="http://www.w3.org/1999/xlink" x="0px" y="0px"
	 width="180.666px" height="63.5px" viewBox="0 0 180.666 63.5" enable-background="new 0 0 180.666 63.5" xml:space="preserve">
<g>
	<g>
		<path fill="#010101" d="M67.476,34.761h-9.892v16.18h9.609c5.582,0,9.397-3.109,9.397-7.984
			C76.59,38.151,73.552,34.761,67.476,34.761z"/>
		<path fill="#010101" d="M75.107,20.842c0-4.734-3.462-7.844-9.186-7.844h-8.337v15.828h8.621
			C71.787,28.826,75.107,25.505,75.107,20.842z"/>
		<path fill="#010101" d="M0,0v63.5h89.958V0H0z M36.954,57.018H6.358V6.922h6.925v43.595h23.67V57.018z M68.183,57.018H50.66V6.922
			h16.321c9.539,0,15.121,5.652,15.121,13.566c0,5.369-3.109,9.186-7.49,10.811c5.724,1.412,9.044,6.5,9.044,12.081
			C83.656,51.294,77.369,57.018,68.183,57.018z"/>
	</g>
	<path fill="#010101" d="M124.496,20.488c-0.567-3.604-3.604-8.549-10.599-8.549c-5.652,0-9.681,3.674-9.681,8.337
		c0,3.604,2.192,6.359,6.43,7.277l7.489,1.625c8.339,1.837,13.001,7.066,13.001,14.061c0,7.772-6.641,14.838-17.31,14.838
		c-12.083,0-17.806-7.772-18.725-14.909l6.642-2.12c0.495,5.582,4.45,10.741,12.011,10.741c6.924,0,10.316-3.604,10.316-7.984
		c0-3.604-2.472-6.712-7.489-7.772l-7.137-1.555c-7.136-1.554-12.223-6.217-12.223-13.708c0-7.842,7.277-14.908,16.533-14.908
		c11.306,0,15.828,6.995,16.958,12.436L124.496,20.488z"/>
	<path fill="#010101" d="M163.92,13.351v43.666h-6.924V13.351H140.25V6.922h40.416v6.429H163.92z"/>
</g>
</svg>
