<?xml version="1.0" encoding="utf-8"?>
<!-- Generator: Adobe Illustrator 17.0.0, SVG Export Plug-In . SVG Version: 6.00 Build 0)  -->
<!DOCTYPE svg PUBLIC "-//W3C//DTD SVG 1.1//EN" "http://www.w3.org/Graphics/SVG/1.1/DTD/svg11.dtd">
<svg version="1.1" id="Layer_1" xmlns="http://www.w3.org/2000/svg" xmlns:xlink="http://www.w3.org/1999/xlink" x="0px" y="0px"
	 width="17.561px" height="16.504px" viewBox="0 0 17.561 16.504" enable-background="new 0 0 17.561 16.504" xml:space="preserve">
<g>
	<g>
		<g>
			<path fill="#FFFFFF" d="M8.888,16.322c-0.044,0-0.088-0.001-0.131-0.003l0,0c-0.028,0.002-0.057,0.003-0.086,0.003
				c-1.019,0-1.673-0.462-2.305-0.909c-0.437-0.308-0.849-0.6-1.334-0.681c-0.237-0.039-0.473-0.059-0.7-0.059
				c-0.41,0-0.734,0.063-0.971,0.11c-0.144,0.028-0.268,0.052-0.362,0.052c-0.098,0-0.205-0.021-0.251-0.18
				c-0.04-0.137-0.069-0.27-0.097-0.399c-0.072-0.331-0.123-0.534-0.262-0.555c-1.616-0.25-2.078-0.59-2.181-0.831
				c-0.015-0.035-0.023-0.069-0.025-0.103c-0.005-0.093,0.06-0.175,0.152-0.19c2.484-0.409,3.597-2.947,3.644-3.055
				C3.98,9.519,3.982,9.516,3.983,9.513c0.152-0.308,0.182-0.576,0.089-0.795C3.902,8.316,3.346,8.14,2.978,8.023
				c-0.09-0.028-0.175-0.055-0.243-0.082c-0.734-0.29-0.795-0.588-0.767-0.74c0.049-0.259,0.395-0.439,0.675-0.439
				c0.077,0,0.144,0.014,0.201,0.04c0.33,0.155,0.628,0.233,0.885,0.233c0.355,0,0.51-0.149,0.529-0.169
				c-0.009-0.168-0.02-0.344-0.032-0.525C4.152,5.167,4.06,3.708,4.432,2.875c1.113-2.496,3.474-2.69,4.172-2.69
				c0.018,0,0.306-0.003,0.306-0.003h0.041c0.699,0,3.065,0.194,4.179,2.692c0.372,0.833,0.28,2.294,0.206,3.467l-0.003,0.051
				c-0.01,0.163-0.02,0.322-0.028,0.474c0.018,0.018,0.16,0.155,0.482,0.168l0,0c0.245-0.009,0.526-0.087,0.834-0.232
				c0.09-0.042,0.191-0.051,0.259-0.051c0.104,0,0.21,0.02,0.298,0.057l0.005,0.002c0.249,0.088,0.413,0.263,0.416,0.446
				c0.003,0.172-0.128,0.431-0.772,0.685c-0.067,0.026-0.152,0.053-0.243,0.082C14.216,8.14,13.66,8.316,13.49,8.718
				c-0.093,0.219-0.063,0.486,0.089,0.795c0.001,0.003,0.003,0.006,0.004,0.009c0.046,0.108,1.159,2.645,3.644,3.055
				c0.092,0.015,0.157,0.097,0.152,0.19c-0.002,0.035-0.011,0.07-0.025,0.104c-0.102,0.24-0.565,0.58-2.181,0.829
				c-0.132,0.02-0.183,0.192-0.262,0.553c-0.029,0.131-0.058,0.26-0.098,0.396c-0.034,0.118-0.108,0.173-0.231,0.173h-0.02
				c-0.086,0-0.207-0.015-0.362-0.046c-0.274-0.054-0.58-0.103-0.971-0.103c-0.228,0-0.464,0.02-0.701,0.059
				c-0.485,0.081-0.897,0.372-1.332,0.68C10.56,15.86,9.907,16.322,8.888,16.322z"/>
			<path fill="#161511" d="M8.949,0.364c0.661,0,2.939,0.178,4.013,2.584c0.353,0.792,0.263,2.228,0.19,3.381
				c-0.012,0.183-0.023,0.36-0.032,0.53l-0.004,0.073l0.049,0.054c0.019,0.022,0.203,0.214,0.612,0.23h0.007h0.007
				c0.27-0.01,0.575-0.094,0.905-0.249c0.048-0.023,0.113-0.034,0.182-0.034c0.078,0,0.161,0.015,0.23,0.044l0.01,0.004
				c0.173,0.061,0.296,0.175,0.298,0.279c0.001,0.059-0.043,0.27-0.657,0.512c-0.06,0.024-0.139,0.049-0.231,0.078
				c-0.4,0.127-1.004,0.318-1.207,0.797c-0.115,0.27-0.083,0.589,0.093,0.946c0.073,0.169,1.213,2.74,3.781,3.163
				c-0.001,0.012-0.004,0.025-0.011,0.041c-0.044,0.103-0.32,0.456-2.042,0.722c-0.269,0.042-0.336,0.343-0.412,0.694
				c-0.027,0.126-0.056,0.252-0.094,0.383c-0.012,0.04-0.014,0.042-0.057,0.042c-0.006,0-0.012,0-0.02,0l0,0
				c-0.076,0-0.192-0.016-0.327-0.042c-0.244-0.048-0.579-0.106-1.006-0.106c-0.238,0-0.484,0.021-0.73,0.062
				c-0.527,0.088-0.955,0.391-1.409,0.711c-0.609,0.431-1.239,0.876-2.2,0.876c-0.042,0-0.083-0.001-0.124-0.003l-0.011-0.001
				l-0.011,0.001c-0.024,0.002-0.047,0.003-0.072,0.003c-0.961,0-1.591-0.445-2.2-0.876c-0.454-0.321-0.882-0.624-1.409-0.711
				c-0.246-0.041-0.492-0.062-0.73-0.062c-0.427,0-0.762,0.065-1.006,0.113c-0.134,0.026-0.251,0.049-0.327,0.049
				c-0.062,0-0.064-0.004-0.077-0.049c-0.039-0.131-0.067-0.261-0.094-0.387c-0.077-0.351-0.143-0.655-0.412-0.696
				c-1.721-0.266-1.998-0.621-2.042-0.723c-0.007-0.016-0.01-0.03-0.01-0.042c2.568-0.423,3.709-2.993,3.781-3.163
				c0.176-0.358,0.208-0.676,0.093-0.946C4.033,8.167,3.429,7.975,3.029,7.848C2.937,7.819,2.858,7.794,2.798,7.77
				C2.279,7.565,2.12,7.359,2.143,7.233C2.17,7.089,2.421,6.942,2.639,6.942c0.049,0,0.092,0.008,0.124,0.023
				c0.355,0.166,0.678,0.25,0.962,0.25c0.446,0,0.645-0.208,0.666-0.231L4.439,6.93L4.435,6.858
				c-0.009-0.169-0.02-0.346-0.032-0.529C4.33,5.176,4.24,3.741,4.593,2.949c1.069-2.398,3.336-2.583,4.005-2.583
				c0.017,0,0.307-0.003,0.307-0.003C8.922,0.364,8.935,0.364,8.949,0.364 M8.949,0L8.949,0c-0.016,0-0.03,0-0.044,0l0,0
				c0,0-0.281,0.003-0.304,0.003c-0.724,0-3.179,0.202-4.337,2.798c-0.39,0.874-0.296,2.357-0.221,3.55
				c0.009,0.141,0.018,0.286,0.026,0.428C4.009,6.812,3.9,6.853,3.727,6.853c-0.23,0-0.502-0.073-0.808-0.216
				C2.838,6.599,2.744,6.58,2.641,6.58c-0.358,0-0.787,0.236-0.853,0.587C1.74,7.42,1.853,7.789,2.666,8.11
				c0.073,0.029,0.162,0.057,0.255,0.086c0.336,0.107,0.844,0.268,0.982,0.592c0.071,0.168,0.043,0.385-0.084,0.643
				C3.816,9.437,3.813,9.443,3.811,9.449c-0.045,0.104-1.12,2.554-3.506,2.947c-0.184,0.03-0.315,0.194-0.304,0.38
				c0.003,0.055,0.016,0.11,0.039,0.164c0.179,0.419,0.935,0.726,2.31,0.939c0.046,0.062,0.094,0.282,0.123,0.416
				c0.029,0.132,0.058,0.268,0.101,0.412c0.041,0.141,0.149,0.31,0.426,0.31c0.112,0,0.244-0.026,0.397-0.056
				c0.229-0.045,0.543-0.106,0.936-0.106c0.218,0,0.444,0.019,0.671,0.057c0.444,0.074,0.821,0.341,1.258,0.649
				c0.625,0.442,1.334,0.943,2.41,0.943c0.03,0,0.059-0.001,0.089-0.003c0.035,0.002,0.08,0.003,0.129,0.003
				c1.077,0,1.785-0.501,2.41-0.943c0.438-0.309,0.815-0.576,1.258-0.649c0.227-0.038,0.453-0.057,0.671-0.057
				c0.375,0,0.671,0.048,0.936,0.099c0.166,0.032,0.299,0.049,0.397,0.049h0.01h0.01c0.204,0,0.349-0.108,0.406-0.304
				c0.041-0.141,0.071-0.273,0.101-0.408c0.029-0.133,0.077-0.352,0.123-0.414c1.376-0.214,2.131-0.52,2.31-0.937
				c0.023-0.053,0.036-0.109,0.039-0.164c0.01-0.186-0.121-0.349-0.304-0.379c-2.387-0.393-3.461-2.843-3.506-2.947
				c-0.003-0.006-0.005-0.012-0.008-0.018c-0.127-0.258-0.156-0.475-0.084-0.643c0.138-0.325,0.645-0.486,0.981-0.592
				c0.094-0.03,0.182-0.058,0.255-0.087c0.595-0.235,0.894-0.524,0.887-0.858c-0.005-0.263-0.21-0.497-0.535-0.613h-0.001
				c-0.109-0.045-0.239-0.07-0.366-0.07c-0.087,0-0.216,0.012-0.336,0.068c-0.283,0.133-0.537,0.205-0.757,0.215
				c-0.145-0.007-0.241-0.043-0.295-0.073c0.007-0.121,0.015-0.246,0.023-0.376l0.003-0.051c0.075-1.193,0.169-2.678-0.221-3.552
				C12.135,0.202,9.675,0,8.949,0L8.949,0z"/>
		</g>
	</g>
</g>
</svg>
