<?xml version="1.0" encoding="utf-8"?>
<!-- Generator: Adobe Illustrator 17.0.0, SVG Export Plug-In . SVG Version: 6.00 Build 0)  -->
<!DOCTYPE svg PUBLIC "-//W3C//DTD SVG 1.1//EN" "http://www.w3.org/Graphics/SVG/1.1/DTD/svg11.dtd">
<svg version="1.1" id="Layer_1" xmlns="http://www.w3.org/2000/svg" xmlns:xlink="http://www.w3.org/1999/xlink" x="0px" y="0px"
	 width="19.859px" height="16.139px" viewBox="0 0 19.859 16.139" enable-background="new 0 0 19.859 16.139" xml:space="preserve">
<g>
	<path fill="#010101" d="M19.859,1.91c-0.731,0.324-1.516,0.543-2.34,0.642c0.841-0.504,1.487-1.303,1.792-2.254
		c-0.787,0.467-1.659,0.806-2.587,0.989C15.981,0.495,14.922,0,13.75,0C11.5,0,9.675,1.824,9.675,4.074
		c0,0.319,0.036,0.63,0.105,0.929c-3.386-0.17-6.388-1.792-8.398-4.257C1.031,1.348,0.83,2.048,0.83,2.794
		c0,1.414,0.719,2.661,1.813,3.391c-0.668-0.021-1.296-0.204-1.845-0.51c0,0.017,0,0.034,0,0.051c0,1.974,1.404,3.621,3.268,3.995
		C3.724,9.814,3.364,9.864,2.993,9.864c-0.263,0-0.518-0.026-0.767-0.073c0.518,1.619,2.023,2.797,3.806,2.83
		c-1.394,1.093-3.151,1.744-5.06,1.744c-0.329,0-0.653-0.019-0.972-0.057c1.803,1.156,3.945,1.831,6.246,1.831
		c7.494,0,11.593-6.208,11.593-11.593c0-0.177-0.004-0.352-0.012-0.527C18.622,3.445,19.313,2.727,19.859,1.91z"/>
</g>
</svg>
